<?xml version="1.0" encoding="UTF-8"?>
<!DOCTYPE svg PUBLIC "-//W3C//DTD SVG 1.1//EN" "http://www.w3.org/Graphics/SVG/1.1/DTD/svg11.dtd">
<svg xmlns="http://www.w3.org/2000/svg" version="1.1" width="5200px" height="800px" style="shape-rendering:geometricPrecision; text-rendering:geometricPrecision; image-rendering:optimizeQuality; fill-rule:evenodd; clip-rule:evenodd" xmlns:xlink="http://www.w3.org/1999/xlink">
<g><path style="opacity:1" fill="#040704" d="M 634.5,32.5 C 667.168,32.3334 699.835,32.5 732.5,33C 775.752,37.7509 816.086,51.0843 853.5,73C 874.149,86.3121 892.316,102.479 908,121.5C 918.741,140.359 923.574,160.693 922.5,182.5C 920.81,224.118 912.643,264.451 898,303.5C 877.535,360.106 850.035,412.773 815.5,461.5C 816.333,461.833 817.167,462.167 818,462.5C 838.179,460.212 858.345,457.879 878.5,455.5C 895.021,454.835 908.855,460.502 920,472.5C 928.849,486.986 928.515,501.32 919,515.5C 908.66,526.838 896.827,536.338 883.5,544C 845.963,563.55 805.963,573.05 763.5,572.5C 758.151,572.073 752.817,571.906 747.5,572C 745.788,592.45 743.955,612.95 742,633.5C 739.077,664.932 729.744,694.266 714,721.5C 696.753,747.058 673.253,764.224 643.5,773C 532.909,806.815 472.743,766.315 463,651.5C 461.344,631.867 460.511,612.2 460.5,592.5C 420.586,605.58 380.586,605.747 340.5,593C 328.839,589.09 318.339,583.257 309,575.5C 266.146,600.459 226.312,596.293 189.5,563C 174.278,547.061 161.111,529.561 150,510.5C 120.259,454.616 97.5919,395.949 82,334.5C 73.4885,304.276 67.1552,273.609 63,242.5C 55.7594,119.087 113.593,51.9207 236.5,41C 293.099,38.1332 348.599,44.6332 403,60.5C 425.629,49.6254 449.463,42.7921 474.5,40C 509.072,36.9332 543.572,37.7665 578,42.5C 596.829,38.3355 615.662,35.0022 634.5,32.5 Z"/></g>
<g><path style="opacity:1" fill="#fbfcfd" d="M 875.5,119.5 C 876.419,122.089 878.086,124.089 880.5,125.5C 887.314,132.79 891.814,141.456 894,151.5C 897.264,173.485 897.264,195.485 894,217.5C 873.617,313.024 833.451,399.191 773.5,476C 784.143,481.428 795.477,483.595 807.5,482.5C 828.674,482.062 849.674,479.895 870.5,476C 882.145,473.771 891.979,476.938 900,485.5C 901.48,494.06 899.147,501.393 893,507.5C 868.158,528.335 839.658,541.169 807.5,546C 786.606,549.13 765.606,550.13 744.5,549C 739.585,548.615 734.752,547.782 730,546.5C 729.228,546.645 728.561,546.978 728,547.5C 722.3,594.434 714.967,641.101 706,687.5C 697.714,717.45 679.214,738.284 650.5,750C 621.145,761.17 590.811,765.504 559.5,763C 522.138,754.975 498.305,732.475 488,695.5C 484.259,674.315 481.926,652.981 481,631.5C 480.667,605.833 480.333,580.167 480,554.5C 461.118,568.572 439.951,576.739 416.5,579C 393.357,581.107 370.69,578.773 348.5,572C 341.516,569.424 335.016,565.924 329,561.5C 319.929,551.808 320.429,542.641 330.5,534C 335.108,530.863 340.108,528.53 345.5,527C 363.299,523.623 380.966,519.623 398.5,515C 408.552,508.765 417.219,500.931 424.5,491.5C 415.739,490.912 407.072,489.745 398.5,488C 391.468,486.579 384.801,484.246 378.5,481C 376.833,480.333 375.167,480.333 373.5,481C 348.197,504.636 323.197,528.636 298.5,553C 275.095,572.26 250.095,574.593 223.5,560C 217.042,555.706 211.042,550.872 205.5,545.5C 199.853,538.685 194.02,532.019 188,525.5C 166.162,492.491 148.496,457.158 135,419.5C 113.037,360.311 97.0372,299.644 87,237.5C 83.8466,201.884 89.5133,167.884 104,135.5C 127.28,96.2599 161.447,72.4265 206.5,64C 215.739,62.1087 225.072,60.7754 234.5,60C 293.212,57.4139 350.545,64.5806 406.5,81.5C 428.565,69.0901 452.232,61.5901 477.5,59C 509.73,55.9344 541.73,57.4344 573.5,63.5C 634.378,47.5826 695.711,45.4159 757.5,57C 803.125,66.6375 842.458,87.4709 875.5,119.5 Z"/></g>
<g><path style="opacity:1" fill="#346790" d="M 653.5,70.5 C 691.04,67.9268 728.04,71.0934 764.5,80C 802.218,90.3927 834.384,109.893 861,138.5C 866.836,146.518 870.17,155.518 871,165.5C 872.636,187.767 870.97,209.767 866,231.5C 853.099,287.227 832.099,339.227 803,387.5C 790.027,411.405 775.36,434.405 759,456.5C 756.073,454.93 755.073,452.596 756,449.5C 770.251,429.25 776.251,406.584 774,381.5C 771.504,359.861 769.337,338.195 767.5,316.5C 768.033,300.603 770.2,284.937 774,269.5C 774.785,258.605 775.618,247.771 776.5,237C 775.726,234.595 775.226,232.095 775,229.5C 768.177,209.822 758.844,191.488 747,174.5C 713.93,128.743 671.096,95.9096 618.5,76C 630.134,73.5892 641.801,71.7559 653.5,70.5 Z"/></g>
<g><path style="opacity:1" fill="#336790" d="M 494.5,77.5 C 552.901,75.0989 606.901,88.9322 656.5,119C 696.386,146.044 726.719,181.21 747.5,224.5C 729.862,224.146 712.195,224.979 694.5,227C 653.034,236.072 636.201,261.572 644,303.5C 649.216,323.061 656.549,341.727 666,359.5C 682.53,387.717 699.53,415.717 717,443.5C 724.937,453.941 733.437,463.941 742.5,473.5C 724.482,477.353 712.649,488.019 707,505.5C 701.775,565.745 693.108,625.411 681,684.5C 674.122,707.376 659.622,723.209 637.5,732C 613.717,741.111 589.05,744.444 563.5,742C 544.873,738.038 530.706,727.872 521,711.5C 519.878,707.049 517.878,703.049 515,699.5C 510.373,681.824 507.706,663.824 507,645.5C 506.087,598.808 505.087,552.141 504,505.5C 493.953,482.642 476.453,472.309 451.5,474.5C 454.257,464.902 457.757,455.569 462,446.5C 472.945,426.607 482.278,405.94 490,384.5C 497.301,343.408 494.301,303.075 481,263.5C 470.382,241.917 452.882,230.417 428.5,229C 415.057,227.991 401.724,228.658 388.5,231C 371.465,235.569 354.798,240.902 338.5,247C 341.44,222.741 347.273,199.241 356,176.5C 371.886,138.283 398.386,110.116 435.5,92C 445.103,88.4658 454.769,85.1324 464.5,82C 474.646,80.4485 484.646,78.9485 494.5,77.5 Z"/></g>
<g><path style="opacity:1" fill="#336790" d="M 240.5,79.5 C 263.557,78.9594 286.557,79.7927 309.5,82C 325.407,85.3811 341.407,88.3811 357.5,91C 366.32,92.7053 374.987,95.0386 383.5,98C 353.513,124.808 333.347,157.641 323,196.5C 317.898,215.818 314.565,235.485 313,255.5C 314.274,282.474 314.607,309.474 314,336.5C 313.059,352.413 311.559,368.247 309.5,384C 310.871,418.863 325.538,446.697 353.5,467.5C 328.708,491.124 304.041,514.957 279.5,539C 264.772,551.215 249.772,551.549 234.5,540C 220.836,528.174 209.17,514.674 199.5,499.5C 179.6,463.949 163.1,426.949 150,388.5C 137.421,350.353 126.754,311.686 118,272.5C 115.374,259.253 113.374,245.919 112,232.5C 106.664,140.692 149.497,89.692 240.5,79.5 Z"/></g>
<g><path style="opacity:1" fill="#879099" d="M 875.5,119.5 C 877.914,120.911 879.581,122.911 880.5,125.5C 878.086,124.089 876.419,122.089 875.5,119.5 Z"/></g>
<g><path style="opacity:1" fill="#020501" d="M 3611.5,523.5 C 3611.5,516.833 3611.5,510.167 3611.5,503.5C 3631.17,503.5 3650.83,503.5 3670.5,503.5C 3672.06,560.756 3700.06,598.589 3754.5,617C 3787.76,626.907 3821.76,631.407 3856.5,630.5C 3886.26,631.224 3915.6,628.057 3944.5,621C 3991.48,610.185 4015.48,580.685 4016.5,532.5C 4015.59,499.793 4000.26,476.959 3970.5,464C 3952.83,458.082 3934.83,453.415 3916.5,450C 3870.23,441.677 3823.89,433.677 3777.5,426C 3749.31,421.029 3721.64,414.029 3694.5,405C 3649.49,386.706 3626.82,353.039 3626.5,304C 3625.62,253.287 3647.95,217.287 3693.5,196C 3726.63,183.31 3760.96,176.31 3796.5,175C 3845.22,171.132 3893.55,173.799 3941.5,183C 3966.71,188.278 3990.05,197.945 4011.5,212C 4046.6,239.036 4063.26,274.869 4061.5,319.5C 4041.17,319.5 4020.83,319.5 4000.5,319.5C 3999.85,273.024 3977.85,241.524 3934.5,225C 3903.46,215.14 3871.63,210.307 3839,210.5C 3806.58,210.292 3774.75,214.458 3743.5,223C 3701.57,237.989 3682.74,267.822 3687,312.5C 3690.64,334.957 3702.47,351.457 3722.5,362C 3726.92,363.806 3731.25,365.806 3735.5,368C 3753.55,373.763 3771.88,378.429 3790.5,382C 3830.34,389.863 3870.34,396.863 3910.5,403C 3945.46,408.572 3979.46,417.572 4012.5,430C 4042.63,441.798 4062.8,462.965 4073,493.5C 4074.85,500.065 4076.18,506.731 4077,513.5C 4083.48,581.725 4054.65,627.558 3990.5,651C 3957.39,661.888 3923.39,667.888 3888.5,669C 3842.84,671.645 3797.51,668.978 3752.5,661C 3718.96,654.883 3688.29,642.216 3660.5,623C 3629.66,597.155 3613.33,563.988 3611.5,523.5 Z"/></g>
<g><path style="opacity:1" fill="#020501" d="M 4369.5,173.5 C 4418.74,171.36 4467.07,176.86 4514.5,190C 4580.21,210.05 4629.37,250.217 4662,310.5C 4684,361.154 4690.67,413.82 4682,468.5C 4672.5,527.734 4643.67,574.734 4595.5,609.5C 4622.54,628.525 4649.87,647.191 4677.5,665.5C 4678.61,666.723 4678.78,668.056 4678,669.5C 4666.22,679.65 4654.72,690.15 4643.5,701C 4642.17,701.667 4640.83,701.667 4639.5,701C 4611.01,680.92 4582.34,661.087 4553.5,641.5C 4524.12,655.762 4493.12,664.262 4460.5,667C 4407.57,672.957 4354.91,671.291 4302.5,662C 4232.02,649.093 4175.85,613.926 4134,556.5C 4104.24,508.438 4091.9,456.104 4097,399.5C 4104.46,308.411 4149.29,243.244 4231.5,204C 4275.69,185.197 4321.69,175.03 4369.5,173.5 Z M 4374.5,211.5 C 4419.33,209.185 4462.66,216.019 4504.5,232C 4585.43,269.143 4626.43,332.476 4627.5,422C 4624.77,527.369 4572.77,594.036 4471.5,622C 4410.49,636.466 4350.16,634.133 4290.5,615C 4202.42,580.728 4157.09,516.228 4154.5,421.5C 4157.61,313.895 4211.28,246.728 4315.5,220C 4335.11,215.699 4354.77,212.866 4374.5,211.5 Z"/></g>
<g><path style="opacity:1" fill="#010400" d="M 1379.5,456.5 C 1303.17,456.5 1226.83,456.5 1150.5,456.5C 1150.5,523.5 1150.5,590.5 1150.5,657.5C 1132.17,657.5 1113.83,657.5 1095.5,657.5C 1095.5,500.5 1095.5,343.5 1095.5,186.5C 1177.55,185.742 1259.89,185.075 1342.5,184.5C 1369.32,183.581 1395.99,185.081 1422.5,189C 1485.4,202.894 1520.57,241.727 1528,305.5C 1532.5,379.641 1499.33,427.474 1428.5,449C 1412.45,453.411 1396.12,455.911 1379.5,456.5 Z M 1151.5,223.5 C 1227.85,223.05 1304.18,223.55 1380.5,225C 1402.62,226.815 1422.62,234.149 1440.5,247C 1456.46,261.32 1465.96,279.154 1469,300.5C 1472.49,322.703 1470.49,344.37 1463,365.5C 1449.89,391.338 1429.06,407.504 1400.5,414C 1389.58,416.44 1378.58,418.274 1367.5,419.5C 1295.5,419.5 1223.5,419.5 1151.5,419.5C 1151.5,354.167 1151.5,288.833 1151.5,223.5 Z"/></g>
<g><path style="opacity:1" fill="#010400" d="M 4742.5,185.5 C 4744.17,185.5 4745.83,185.5 4747.5,185.5C 4758.17,185.5 4768.83,185.5 4779.5,185.5C 4779.5,329.833 4779.5,474.167 4779.5,618.5C 4896.83,618.5 5014.17,618.5 5131.5,618.5C 5131.5,628.833 5131.5,639.167 5131.5,649.5C 5131.5,650.167 5131.5,650.833 5131.5,651.5C 5130.54,653.265 5130.21,655.265 5130.5,657.5C 4995.17,657.5 4859.83,657.5 4724.5,657.5C 4724.5,500.5 4724.5,343.5 4724.5,186.5C 4730.69,186.823 4736.69,186.49 4742.5,185.5 Z"/></g>
<g><path style="opacity:1" fill="#356890" d="M 705.5,246.5 C 720.215,246.183 734.882,246.517 749.5,247.5C 750.66,251.459 750.827,255.459 750,259.5C 744.653,283.581 742.32,307.914 743,332.5C 747.445,354.28 749.445,376.28 749,398.5C 747.688,405.141 746.355,411.807 745,418.5C 743.345,423.143 741.178,427.477 738.5,431.5C 733.909,423.064 729.076,414.731 724,406.5C 704.942,380.65 688.942,352.983 676,323.5C 673.311,314.156 670.644,304.822 668,295.5C 662.824,273.347 670.657,258.18 691.5,250C 696.403,249.242 701.07,248.075 705.5,246.5 Z"/></g>
<g><path style="opacity:0.861" fill="#1c2125" d="M 2498.5,380.5 C 2498.5,369.833 2498.5,359.167 2498.5,348.5C 2470.5,348.5 2442.5,348.5 2414.5,348.5C 2414.5,314.833 2414.5,281.167 2414.5,247.5C 2398.83,247.5 2383.17,247.5 2367.5,247.5C 2367.83,278.338 2367.5,309.005 2366.5,339.5C 2366.5,308.5 2366.5,277.5 2366.5,246.5C 2382.83,246.5 2399.17,246.5 2415.5,246.5C 2415.5,280.167 2415.5,313.833 2415.5,347.5C 2443.5,347.5 2471.5,347.5 2499.5,347.5C 2499.83,358.679 2499.49,369.679 2498.5,380.5 Z"/></g>
<g><path style="opacity:1" fill="#010400" d="M 2498.5,380.5 C 2495.5,380.5 2492.5,380.5 2489.5,380.5C 2464.67,379.502 2439.67,379.169 2414.5,379.5C 2414.17,450.669 2414.5,521.669 2415.5,592.5C 2415.22,607.805 2421.89,618.638 2435.5,625C 2441.33,627.099 2447.33,628.432 2453.5,629C 2469.02,632.025 2484.19,630.859 2499,625.5C 2499.5,636.828 2499.67,648.162 2499.5,659.5C 2472.47,663.65 2445.47,663.483 2418.5,659C 2406.87,656.796 2396.2,652.463 2386.5,646C 2374.08,634.999 2367.75,621.165 2367.5,604.5C 2367.5,529.5 2367.5,454.5 2367.5,379.5C 2346.5,379.5 2325.5,379.5 2304.5,379.5C 2303.17,369.098 2303.17,358.598 2304.5,348C 2325.16,347.5 2345.83,347.333 2366.5,347.5C 2366.5,344.833 2366.5,342.167 2366.5,339.5C 2367.5,309.005 2367.83,278.338 2367.5,247.5C 2383.17,247.5 2398.83,247.5 2414.5,247.5C 2414.5,281.167 2414.5,314.833 2414.5,348.5C 2442.5,348.5 2470.5,348.5 2498.5,348.5C 2498.5,359.167 2498.5,369.833 2498.5,380.5 Z"/></g>
<g><path style="opacity:1" fill="#346790" d="M 405.5,249.5 C 414.884,249.184 424.218,249.684 433.5,251C 447.333,254.833 456.167,263.667 460,277.5C 467.435,303.652 470.435,330.319 469,357.5C 467.127,373.425 463.127,388.759 457,403.5C 448.88,417.663 441.547,432.33 435,447.5C 432.187,454.774 429.687,462.107 427.5,469.5C 387.007,468.503 357.84,449.836 340,413.5C 335.439,401.237 333.772,388.57 335,375.5C 336.802,363.885 338.136,352.218 339,340.5C 339.457,318.157 339.457,295.824 339,273.5C 359.528,261.045 381.695,253.045 405.5,249.5 Z"/></g>
<g><path style="opacity:1" fill="#fbfcfd" d="M 699.5,256.5 C 707.903,256.13 716.236,256.63 724.5,258C 727.207,259.864 728.041,262.364 727,265.5C 717.693,278.159 705.859,280.992 691.5,274C 688.897,271.906 686.897,269.406 685.5,266.5C 685.76,264.813 686.427,263.313 687.5,262C 691.644,260.241 695.644,258.408 699.5,256.5 Z"/></g>
<g><path style="opacity:1" fill="#fbfcfd" d="M 410.5,261.5 C 419.208,261.299 427.875,261.799 436.5,263C 451.623,268.726 452.29,275.726 438.5,284C 423.554,289.777 411.721,285.944 403,272.5C 402.294,270.029 402.627,267.695 404,265.5C 406.314,264.267 408.481,262.933 410.5,261.5 Z"/></g>
<g><path style="opacity:1" fill="#020502" d="M 1692.5,337.5 C 1728.77,335.927 1764.44,339.761 1799.5,349C 1873.81,373.506 1911.48,425.006 1912.5,503.5C 1912.64,576.122 1879.31,625.956 1812.5,653C 1767.53,667.332 1721.53,671.999 1674.5,667C 1633.44,663.992 1597.1,649.659 1565.5,624C 1531.84,591.666 1515.18,551.999 1515.5,505C 1514.6,436.09 1544.93,386.757 1606.5,357C 1634.17,345.57 1662.83,339.07 1692.5,337.5 Z M 1698.5,371.5 C 1729.64,370.088 1759.97,374.255 1789.5,384C 1833.82,402.689 1857.65,436.189 1861,484.5C 1867.57,577.935 1824.07,628.102 1730.5,635C 1699.24,637.775 1668.9,633.775 1639.5,623C 1599.99,604.856 1576.16,574.356 1568,531.5C 1561.39,494.032 1567.72,459.032 1587,426.5C 1606.96,399.749 1633.46,382.916 1666.5,376C 1677.26,374.087 1687.92,372.587 1698.5,371.5 Z"/></g>
<g><path style="opacity:1" fill="#020502" d="M 2276.5,430.5 C 2276.5,433.833 2276.5,437.167 2276.5,440.5C 2260.17,440.5 2243.83,440.5 2227.5,440.5C 2227.77,438.901 2227.43,437.568 2226.5,436.5C 2224.91,415.769 2215.58,399.602 2198.5,388C 2176.68,376.379 2153.35,370.379 2128.5,370C 2100.9,368.462 2073.56,370.462 2046.5,376C 2031.41,379.294 2018.24,386.127 2007,396.5C 1993.44,413.717 1992.1,431.717 2003,450.5C 2012.38,459.943 2023.54,466.443 2036.5,470C 2051.7,473.41 2067.03,476.076 2082.5,478C 2112.13,481.699 2141.79,485.032 2171.5,488C 2194.75,490.429 2217.41,495.429 2239.5,503C 2282.73,519.965 2299.23,551.132 2289,596.5C 2283.11,616.378 2271.28,631.545 2253.5,642C 2232.02,653.793 2209.02,661.127 2184.5,664C 2142.21,669.454 2099.88,669.787 2057.5,665C 2031.5,663.002 2006.84,656.336 1983.5,645C 1952.69,625.915 1936.36,598.082 1934.5,561.5C 1952.5,561.167 1970.5,560.833 1988.5,560.5C 1987.65,581.951 1995.32,599.451 2011.5,613C 2029.09,624.573 2048.43,631.573 2069.5,634C 2104.89,638.902 2140.22,638.569 2175.5,633C 2194.09,630.365 2210.76,623.365 2225.5,612C 2239.13,597.528 2242.96,580.695 2237,561.5C 2230.22,546.164 2218.72,535.997 2202.5,531C 2142.86,522.262 2083.19,513.595 2023.5,505C 1960.25,495.125 1936.42,459.291 1952,397.5C 1960.47,378.361 1974.31,364.528 1993.5,356C 2021.94,345.846 2051.27,340.18 2081.5,339C 2121.33,335.984 2160.66,338.984 2199.5,348C 2223.58,353.944 2243.75,366.111 2260,384.5C 2269.95,398.192 2275.45,413.525 2276.5,430.5 Z"/></g>
<g><path style="opacity:1" fill="#020501" d="M 2869.5,662.5 C 2870.66,639.67 2870.83,616.67 2870,593.5C 2869.28,594.044 2868.78,594.711 2868.5,595.5C 2852.25,615.564 2831.92,630.064 2807.5,639C 2750.56,656.418 2693.23,657.751 2635.5,643C 2563.53,620.489 2527.87,571.323 2528.5,495.5C 2528.25,420.269 2563.92,371.435 2635.5,349C 2677.29,338.196 2719.63,335.53 2762.5,341C 2784.24,343.914 2804.91,350.248 2824.5,360C 2840.61,372.108 2855.44,385.608 2869,400.5C 2869.5,383.17 2869.67,365.837 2869.5,348.5C 2885.83,348.5 2902.17,348.5 2918.5,348.5C 2918.67,454.834 2918.5,561.167 2918,667.5C 2913.15,716.332 2888.31,750.498 2843.5,770C 2816.17,780.582 2787.84,786.582 2758.5,788C 2718.2,790.432 2678.2,788.099 2638.5,781C 2585.05,771.547 2553.71,740.214 2544.5,687C 2561.35,685.515 2578.35,685.015 2595.5,685.5C 2598.78,704.9 2607.45,721.4 2621.5,735C 2641.67,747.387 2663.67,754.387 2687.5,756C 2717.92,758.505 2748.25,757.838 2778.5,754C 2831.38,745.62 2861.72,715.12 2869.5,662.5 Z M 2705.5,372.5 C 2738.44,369.931 2770.44,374.098 2801.5,385C 2846.91,406.774 2869.58,443.107 2869.5,494C 2869.28,558.551 2837.94,598.884 2775.5,615C 2737.65,622.265 2699.98,621.265 2662.5,612C 2618.94,600.11 2592.11,572.277 2582,528.5C 2575.15,495.09 2579.15,463.09 2594,432.5C 2610.81,406.162 2634.31,388.662 2664.5,380C 2678.15,376.616 2691.82,374.116 2705.5,372.5 Z"/></g>
<g><path style="opacity:1" fill="#010400" d="M 3020.5,492.5 C 3019.5,547.331 3019.17,602.331 3019.5,657.5C 3003.83,657.5 2988.17,657.5 2972.5,657.5C 2972.5,554.833 2972.5,452.167 2972.5,349.5C 2988.17,349.5 3003.83,349.5 3019.5,349.5C 3019.5,367.833 3019.5,386.167 3019.5,404.5C 3023.15,404.838 3024.82,403.172 3024.5,399.5C 3037.42,366.103 3061.75,346.936 3097.5,342C 3105.47,340.719 3113.47,339.719 3121.5,339C 3140.83,338.5 3160.16,338.333 3179.5,338.5C 3179.83,352.516 3179.5,366.516 3178.5,380.5C 3146.66,374.039 3115.33,375.873 3084.5,386C 3051.44,400.573 3031.6,425.739 3025,461.5C 3022.98,471.783 3021.48,482.117 3020.5,492.5 Z"/></g>
<g><path style="opacity:1" fill="#020502" d="M 3567.5,499.5 C 3567.5,503.5 3567.5,507.5 3567.5,511.5C 3452.83,511.5 3338.17,511.5 3223.5,511.5C 3223.22,513.415 3223.55,515.081 3224.5,516.5C 3228.99,572.158 3257.66,608.991 3310.5,627C 3348.17,637.5 3386.17,638.833 3424.5,631C 3465.82,621.498 3493.82,596.998 3508.5,557.5C 3526.01,557.17 3543.34,557.503 3560.5,558.5C 3549.62,596.06 3526.95,624.227 3492.5,643C 3448.12,663.676 3401.46,672.009 3352.5,668C 3316.33,666.386 3282.33,657.052 3250.5,640C 3199.19,607.9 3173.52,561.4 3173.5,500.5C 3174.62,430.929 3206.95,382.429 3270.5,355C 3311.97,340.613 3354.64,335.28 3398.5,339C 3432.7,340.548 3464.7,349.548 3494.5,366C 3542.05,397.48 3566.38,441.98 3567.5,499.5 Z M 3351.5,369.5 C 3382.18,366.833 3411.85,370.999 3440.5,382C 3468.65,394.485 3490.48,413.985 3506,440.5C 3513.09,453.95 3516.59,468.284 3516.5,483.5C 3419.16,483.833 3321.83,483.5 3224.5,482.5C 3229.84,450.805 3243.84,423.805 3266.5,401.5C 3291.89,382.927 3320.22,372.26 3351.5,369.5 Z"/></g>
<g><path style="opacity:0.862" fill="#1b2024" d="M 2489.5,380.5 C 2464.83,380.5 2440.17,380.5 2415.5,380.5C 2415.5,451.167 2415.5,521.833 2415.5,592.5C 2414.5,521.669 2414.17,450.669 2414.5,379.5C 2439.67,379.169 2464.67,379.502 2489.5,380.5 Z"/></g>
<g><path style="opacity:0.4" fill="#1e1e20" d="M 2304.5,379.5 C 2325.5,379.5 2346.5,379.5 2367.5,379.5C 2367.5,454.5 2367.5,529.5 2367.5,604.5C 2366.5,530.002 2366.17,455.335 2366.5,380.5C 2345.66,380.831 2324.99,380.497 2304.5,379.5 Z"/></g>
<g><path style="opacity:0.557" fill="#1c1d20" d="M 3024.5,399.5 C 3024.82,403.172 3023.15,404.838 3019.5,404.5C 3019.5,386.167 3019.5,367.833 3019.5,349.5C 3003.83,349.5 2988.17,349.5 2972.5,349.5C 2972.5,452.167 2972.5,554.833 2972.5,657.5C 2988.17,657.5 3003.83,657.5 3019.5,657.5C 3019.17,602.331 3019.5,547.331 3020.5,492.5C 3020.5,547.833 3020.5,603.167 3020.5,658.5C 3004.17,658.5 2987.83,658.5 2971.5,658.5C 2971.5,555.167 2971.5,451.833 2971.5,348.5C 2987.83,348.5 3004.17,348.5 3020.5,348.5C 3020.17,366.845 3020.5,385.179 3021.5,403.5C 3022.52,402.099 3023.52,400.765 3024.5,399.5 Z"/></g>
<g><path style="opacity:0.114" fill="#191b1d" d="M 1151.5,223.5 C 1151.5,288.833 1151.5,354.167 1151.5,419.5C 1223.5,419.5 1295.5,419.5 1367.5,419.5C 1295.34,420.499 1223,420.833 1150.5,420.5C 1150.17,354.665 1150.5,288.998 1151.5,223.5 Z"/></g>
<g><path style="opacity:0.857" fill="#1c2024" d="M 2276.5,430.5 C 2277.48,433.962 2277.81,437.629 2277.5,441.5C 2260.5,441.5 2243.5,441.5 2226.5,441.5C 2226.5,439.833 2226.5,438.167 2226.5,436.5C 2227.43,437.568 2227.77,438.901 2227.5,440.5C 2243.83,440.5 2260.17,440.5 2276.5,440.5C 2276.5,437.167 2276.5,433.833 2276.5,430.5 Z"/></g>
<g><path style="opacity:1" fill="#386a92" d="M 753.5,492.5 C 761.274,495.036 768.941,497.869 776.5,501C 796.093,503.438 815.76,504.105 835.5,503C 846.138,501.099 856.804,499.765 867.5,499C 840.637,517.893 810.637,527.559 777.5,528C 768.167,528.667 758.833,528.667 749.5,528C 743.257,527.685 737.257,526.352 731.5,524C 728.607,506.27 735.94,495.77 753.5,492.5 Z"/></g>
<g><path style="opacity:1" fill="#366891" d="M 455.5,495.5 C 469.428,495.601 477.761,502.434 480.5,516C 480.635,520.1 479.302,523.6 476.5,526.5C 449.759,553.452 417.426,563.618 379.5,557C 369.481,556.235 360.148,553.402 351.5,548.5C 367.702,544.358 384.035,540.524 400.5,537C 407.112,534.91 413.445,532.243 419.5,529C 431.195,517.372 443.195,506.205 455.5,495.5 Z"/></g>
<g><path style="opacity:0.86" fill="#1b2024" d="M 3670.5,503.5 C 3650.83,503.5 3631.17,503.5 3611.5,503.5C 3611.5,510.167 3611.5,516.833 3611.5,523.5C 3610.51,516.687 3610.18,509.687 3610.5,502.5C 3630.67,502.17 3650.67,502.503 3670.5,503.5 Z"/></g>
<g><path style="opacity:0.114" fill="#19191a" d="M 3567.5,499.5 C 3568.48,503.634 3568.82,507.968 3568.5,512.5C 3453.83,512.5 3339.17,512.5 3224.5,512.5C 3224.5,513.833 3224.5,515.167 3224.5,516.5C 3223.55,515.081 3223.22,513.415 3223.5,511.5C 3338.17,511.5 3452.83,511.5 3567.5,511.5C 3567.5,507.5 3567.5,503.5 3567.5,499.5 Z"/></g>
<g><path style="opacity:0.251" fill="#202428" d="M 3508.5,557.5 C 3526,556.173 3543.67,556.173 3561.5,557.5C 3561.38,558.107 3561.04,558.44 3560.5,558.5C 3543.34,557.503 3526.01,557.17 3508.5,557.5 Z"/></g>
<g><path style="opacity:0.557" fill="#1c1e21" d="M 1095.5,186.5 C 1095.5,343.5 1095.5,500.5 1095.5,657.5C 1113.83,657.5 1132.17,657.5 1150.5,657.5C 1150.5,590.5 1150.5,523.5 1150.5,456.5C 1226.83,456.5 1303.17,456.5 1379.5,456.5C 1303.67,457.499 1227.67,457.833 1151.5,457.5C 1151.5,524.5 1151.5,591.5 1151.5,658.5C 1132.5,658.5 1113.5,658.5 1094.5,658.5C 1094.17,500.999 1094.5,343.666 1095.5,186.5 Z"/></g>
<g><path style="opacity:0.556" fill="#1a1d20" d="M 4747.5,185.5 C 4758.32,184.505 4769.32,184.172 4780.5,184.5C 4780.5,328.833 4780.5,473.167 4780.5,617.5C 4897.83,617.5 5015.17,617.5 5132.5,617.5C 5132.83,628.346 5132.49,639.013 5131.5,649.5C 5131.5,639.167 5131.5,628.833 5131.5,618.5C 5014.17,618.5 4896.83,618.5 4779.5,618.5C 4779.5,474.167 4779.5,329.833 4779.5,185.5C 4768.83,185.5 4758.17,185.5 4747.5,185.5 Z"/></g>
<g><path style="opacity:0.251" fill="#1f2225" d="M 2869.5,662.5 C 2869.83,639.994 2869.5,617.66 2868.5,595.5C 2868.78,594.711 2869.28,594.044 2870,593.5C 2870.83,616.67 2870.66,639.67 2869.5,662.5 Z"/></g>
<g><path style="opacity:0.714" fill="#1a2024" d="M 4742.5,185.5 C 4736.69,186.49 4730.69,186.823 4724.5,186.5C 4724.5,343.5 4724.5,500.5 4724.5,657.5C 4859.83,657.5 4995.17,657.5 5130.5,657.5C 5130.21,655.265 5130.54,653.265 5131.5,651.5C 5131.5,653.833 5131.5,656.167 5131.5,658.5C 4995.5,658.5 4859.5,658.5 4723.5,658.5C 4723.5,500.833 4723.5,343.167 4723.5,185.5C 4729.83,185.5 4736.17,185.5 4742.5,185.5 Z"/></g>
</svg>
